<?xml version="1.0" encoding="UTF-8"?>
<svg width="1467px" height="914px" viewBox="0 0 1467 914" version="1.1" xmlns="http://www.w3.org/2000/svg" xmlns:xlink="http://www.w3.org/1999/xlink">
    <!-- Generator: Sketch 54.1 (76490) - https://sketchapp.com -->
    <title>communication</title>
    <desc>Created with Sketch.</desc>
    <g id="Page-1" stroke="none" stroke-width="1" fill="none" fill-rule="evenodd">
        <g id="communication" transform="translate(248.000000, -6.000000)">
            <text id="Customer" font-family="MerriweatherSans-Book, Merriweather Sans" font-size="40" font-weight="300" letter-spacing="-0.120000027" fill="#000000">
                <tspan x="97.071797" y="39">Customer</tspan>
            </text>
            <text id="Merchant-Webserver" font-family="MerriweatherSans-Book, Merriweather Sans" font-size="40" font-weight="300" letter-spacing="-0.12" fill="#000000">
                <tspan x="538.626875" y="39">Merchant Webserver</tspan>
            </text>
            <text id="Merchant-Full-Node" font-family="MerriweatherSans-Book, Merriweather Sans" font-size="40" font-weight="300" letter-spacing="-0.12" fill="#000000">
                <tspan x="548.070234" y="919">Merchant Full Node</tspan>
            </text>
            <text id="Customer-Full-Node" font-family="MerriweatherSans-Book, Merriweather Sans" font-size="40" font-weight="300" letter-spacing="-0.12" fill="#000000">
                <tspan x="0.2596875" y="919">Customer Full Node</tspan>
            </text>
            <path id="Line-6" d="M391.59,176.702052 L528.5,176.702052 L528.5,158.702052 L572.5,180.702052 L528.5,202.702052 L528.5,184.702052 L391.59,184.702052 L391.59,202.702052 L347.59,180.702052 L391.59,158.702052 L391.59,176.702052 Z" fill="#4A90E2" fill-rule="nonzero"></path>
            <path id="Line-6" d="M391.585937,661.702052 L528.5,661.702052 L528.5,643.702052 L572.5,665.702052 L528.5,687.702052 L528.5,669.702052 L391.585937,669.702052 L391.585937,687.702052 L347.585937,665.702052 L391.585937,643.702052 L391.585937,661.702052 Z" fill="#4A90E2" fill-rule="nonzero"></path>
            <path id="Line-6" d="M734.5,386 L734.5,480.983302 L752.5,480.983302 L730.5,524.983302 L708.5,480.983302 L726.5,480.983302 L726.5,386 L708.5,386 L730.5,342 L752.5,386 L734.5,386 Z" fill="#4A90E2" fill-rule="nonzero"></path>
            <path id="Line-6" d="M184.5,386 L184.5,480.983302 L202.5,480.983302 L180.5,524.983302 L158.5,480.983302 L176.5,480.983302 L176.5,386 L158.5,386 L180.5,342 L202.5,386 L184.5,386 Z" fill="#4A90E2" fill-rule="nonzero"></path>
            <g id="globe" transform="translate(613.000000, 77.000000)" fill="#000000" fill-rule="nonzero">
                <path d="M247.999516,128.133406 L247.999516,111.599782 C247.985953,100.191804 238.741193,90.9470411 227.332736,90.9329943 L190.029651,90.9329943 C189.06284,68.4158976 180.096596,46.9818614 164.741944,30.4831123 C164.64846,30.3290814 164.543351,30.1828004 164.427585,30.0447538 C164.352992,29.9745196 164.25418,29.9498165 164.175227,29.8878166 C146.250003,10.8160726 121.240327,0 95.0667001,0 C68.8930736,0 43.8829131,10.8160726 25.9572049,29.888301 C25.8700176,29.9352853 25.7857366,29.9875977 25.7048461,30.0452382 C25.5890808,30.1832848 25.4839716,30.3295658 25.3909719,30.4835967 C-8.50502727,66.9748848 -8.45804301,123.450962 25.4985029,159.885578 C25.5648621,159.951938 25.6350963,160.013937 25.7009711,160.084172 C41.6208872,177.080373 63.2602899,187.594196 86.4608296,189.604348 C87.740061,191.39072 89.2924792,192.963967 91.0614126,194.266933 C85.7996592,198.135144 82.6851352,204.269742 82.666729,210.800073 L82.666729,227.333212 C82.6802915,238.74119 91.9250512,247.985953 103.333509,248 L227.33322,248 C238.741193,247.986438 247.985953,238.741674 248,227.333212 L248,210.799588 C247.981594,204.269257 244.866585,198.13466 239.605316,194.266449 C244.86707,190.398238 247.981594,184.26364 248,177.733309 L248,161.199685 C247.981594,154.669354 244.866585,148.534757 239.605316,144.666546 C244.866101,140.798334 247.981109,134.663737 247.999516,128.133406 Z M181.655311,90.9334786 L148.741622,90.9334786 C148.509607,78.0786756 146.71597,65.2999193 143.4014,52.8781467 C149.921557,49.0477167 155.960246,44.4519757 161.389592,39.1887672 C173.663626,53.7316138 180.787797,71.9227658 181.655311,90.9334786 Z M155.760199,33.1244041 C151.239054,37.5322079 146.249518,41.4328722 140.880234,44.7556782 C137.086618,32.8347484 130.727758,21.8898322 122.251215,12.6891471 C134.833795,16.8552483 146.296018,23.8452503 155.760199,33.1244041 Z M99.1998624,8.67998305 C113.364892,11.2510405 125.851566,26.8667757 133.299783,48.9590763 C122.651308,54.1845035 111.047163,57.1793883 99.1998624,57.7586997 L99.1998624,8.67998305 L99.1998624,8.67998305 Z M99.1998624,66.025996 C111.843958,65.4573409 124.248288,62.3762375 135.688715,56.96142 C138.568318,68.0656952 140.156579,79.4649542 140.421532,90.9329943 L99.1998624,90.9329943 L99.1998624,66.025996 Z M90.9330535,8.67998305 L90.9330535,57.7591841 C79.085753,57.1793883 67.4816082,54.1849879 56.833133,48.9595606 C64.28135,26.8667757 76.7685084,11.2510405 90.9330535,8.67998305 Z M49.7113839,90.9334786 C49.9763365,79.4649542 51.564114,68.0656952 54.444201,56.9619044 C65.8846275,62.3762375 78.288958,65.4578253 90.9330535,66.0264804 L90.9330535,90.933963 L49.7113839,90.933963 L49.7113839,90.9334786 Z M86.9074223,99.1998063 C84.172163,102.756081 82.6817446,107.113025 82.666729,111.599782 L82.666729,124.826584 C72.85283,126.081597 63.301946,128.894358 54.3739668,133.159271 C51.5432859,122.052574 49.9889302,110.659128 49.7404464,99.1998063 L86.9074223,99.1998063 L86.9074223,99.1998063 Z M67.881701,12.6896315 C59.402252,21.8893479 53.0409699,32.834264 49.2444475,44.7561626 C43.8751632,41.4333566 38.8856279,37.5331767 34.3644822,33.1248884 C43.8310851,23.8442816 55.2962147,16.8537952 67.881701,12.6896315 Z M28.7433234,39.1882828 C34.1726702,44.4514913 40.2113592,49.0472323 46.7315159,52.8776623 C43.4164611,65.2999193 41.623309,78.0786756 41.391294,90.9329943 L8.47760503,90.9329943 C9.34511863,71.9227658 16.4692895,53.7316138 28.7433234,39.1882828 Z M8.46113632,99.1998063 L41.4779969,99.1998063 C41.73084,112.038625 43.5477264,124.798491 46.888453,137.197498 C40.3145308,141.040521 34.23467,145.67259 28.7844952,150.990533 C16.4818833,136.441874 9.3363999,118.2328 8.46113632,99.1998063 Z M34.4100133,157.045693 C38.9355184,152.604952 43.9415224,148.681522 49.3355098,145.348544 C53.2042039,157.328083 59.6502514,168.314171 68.2207627,177.534716 C55.5141829,173.419474 43.9386161,166.404769 34.4100133,157.045693 Z M82.666729,161.199685 L82.666729,177.732825 C82.666729,177.993418 82.7330882,178.228824 82.7413226,178.485058 C72.1228786,172.648835 62.7773691,159.418157 56.7013833,141.318068 C65.0728169,137.14567 74.0768428,134.387159 83.3487274,133.154912 C84.5039591,137.708997 87.1801248,141.732208 90.9335379,144.55853 L90.9335379,144.773592 C85.7478312,148.644225 82.6856196,154.728932 82.666729,161.199685 Z M239.732707,210.799588 L239.732707,227.332728 C239.732707,234.180808 234.181298,239.732704 227.332736,239.732704 L103.333025,239.732704 C96.4844624,239.732704 90.9330535,234.181293 90.9330535,227.332728 L90.9330535,210.799588 C90.9330535,203.951508 96.4844624,198.399613 103.333025,198.399613 L227.332736,198.399613 C234.181298,198.399613 239.732707,203.951508 239.732707,210.799588 Z M239.732707,161.199685 L239.732707,177.732825 C239.732707,184.580905 234.181298,190.132801 227.332736,190.132801 L103.333025,190.132801 C96.4844624,190.132801 90.9330535,184.581389 90.9330535,177.732825 L90.9330535,161.199685 C90.9330535,154.351605 96.4844624,148.799709 103.333025,148.799709 L227.332736,148.799709 C234.181298,148.799709 239.732707,154.351605 239.732707,161.199685 Z M239.732707,128.133406 C239.732707,134.981486 234.181298,140.533382 227.332736,140.533382 L103.333025,140.533382 C96.4844624,140.533382 90.9330535,134.981486 90.9330535,128.133406 L90.9330535,111.599782 C90.9330535,104.751702 96.4844624,99.1998063 103.333025,99.1998063 L227.332736,99.1998063 C234.180813,99.1998063 239.732707,104.751702 239.732707,111.599782 L239.732707,128.133406 Z" id="Shape"></path>
                <path d="M214.750125,116 L206.249875,116 C203.902558,116 202,118.014532 202,120.5 C202,122.985468 203.902558,125 206.249875,125 L214.750125,125 C217.097442,125 219,122.985468 219,120.5 C219,118.014532 217.097442,116 214.750125,116 Z" id="Path"></path>
                <path d="M190.750125,116 L182.249875,116 C179.902558,116 178,118.014532 178,120.5 C178,122.985468 179.902558,125 182.249875,125 L190.750125,125 C193.097442,125 195,122.985468 195,120.5 C195,118.014532 193.097442,116 190.750125,116 Z" id="Path"></path>
                <path d="M119.5,107 C112.59668,107 107,112.596191 107,119.5 C107,126.40332 112.596191,132 119.5,132 C126.403809,132 132,126.403809 132,119.5 C132,112.596191 126.40332,107 119.5,107 Z M119.5,123.666504 C117.19873,123.666504 115.333496,121.80127 115.333496,119.5 C115.333496,117.19873 117.19873,115.333496 119.5,115.333496 C121.80127,115.333496 123.666504,117.19873 123.666504,119.5 C123.666504,121.80127 121.800781,123.666504 119.5,123.666504 Z" id="Shape"></path>
                <path d="M214.750125,166 L206.249875,166 C203.902558,166 202,168.014532 202,170.5 C202,172.985468 203.902558,175 206.249875,175 L214.750125,175 C217.097442,175 219,172.985468 219,170.5 C219,168.014532 217.097442,166 214.750125,166 Z" id="Path"></path>
                <path d="M190.750125,166 L182.249875,166 C179.902558,166 178,168.014532 178,170.5 C178,172.985468 179.902558,175 182.249875,175 L190.750125,175 C193.097442,175 195,172.985468 195,170.5 C195,168.014532 193.097442,166 190.750125,166 Z" id="Path"></path>
                <path d="M119.5,158 C112.59668,158 107,163.59668 107,170.5 C107,177.40332 112.596191,183 119.5,183 C126.403809,183 132,177.403809 132,170.5 C132,163.596191 126.40332,158 119.5,158 Z M119.5,174.666504 C117.19873,174.666504 115.333496,172.80127 115.333496,170.5 C115.333496,168.19873 117.19873,166.333496 119.5,166.333496 C121.80127,166.333496 123.666504,168.19873 123.666504,170.5 C123.666504,172.80127 121.800781,174.666504 119.5,174.666504 Z" id="Shape"></path>
                <path d="M214.750124,214 L206.249875,214 C203.902558,214 202,216.015059 202,218.5 C202,220.985468 203.902558,223 206.249875,223 L214.750124,223 C217.097442,223 219,220.984941 219,218.5 C219.000498,216.014532 217.097442,214 214.750124,214 Z" id="Path"></path>
                <path d="M190.750124,214 L182.249875,214 C179.902558,214 178,216.015059 178,218.5 C178,220.985468 179.902558,223 182.249875,223 L190.750124,223 C193.097442,223 195,220.984941 195,218.5 C195.000498,216.014532 193.097442,214 190.750124,214 Z" id="Path"></path>
                <path d="M119.5,207 C112.59668,207 107,212.59668 107,219.5 C107,226.40332 112.596191,232 119.5,232 C126.403809,232 132,226.40332 132,219.5 C132,212.596191 126.40332,207 119.5,207 Z M119.5,223.666504 C117.19873,223.666504 115.333496,221.800781 115.333496,219.5 C115.333496,217.19873 117.19873,215.333496 119.5,215.333496 C121.80127,215.333496 123.666504,217.199219 123.666504,219.5 C123.666504,221.80127 121.800781,223.666504 119.5,223.666504 Z" id="Shape"></path>
            </g>
            <g id="server" transform="translate(59.000000, 547.000000)" fill="#000000" fill-rule="nonzero">
                <path d="M113.333206,52 L26.6667936,52 C21.8801764,52 18,55.837513 18,60.5715003 L18,73.4284997 C18,78.162487 21.8801764,82 26.6667936,82 L113.333206,82 C118.119824,82 122,78.162487 122,73.4284997 L122,60.5715003 C121.999492,55.837513 118.119316,52 113.333206,52 Z M113.333206,73.4284997 L26.6667936,73.4284997 L26.6667936,60.5715003 L113.333206,60.5715003 L113.333206,73.4284997 Z" id="Shape"></path>
                <path d="M92,113 C92,100.849907 82.1500926,91 70,91 C57.8499074,91 48,100.849907 48,113 C48,125.150093 57.8493918,135 70,135 C82.1444207,134.985047 91.9855626,125.143905 92,113 Z M56.8001031,113 C56.8001031,105.710151 62.7096351,99.8001031 70,99.8001031 C77.2903649,99.8001031 83.1998969,105.710151 83.1998969,113 C83.1998969,120.289849 77.2898493,126.199897 70,126.199897 C62.7101507,126.199897 56.8001031,120.289849 56.8001031,113 Z" id="Shape"></path>
                <path d="M21.3332487,100 L38.6667513,100 C41.0601184,100 43,97.9854682 43,95.5 C43,93.0145318 41.0601184,91 38.6667513,91 L21.3332487,91 C18.9398816,91 17,93.0145318 17,95.5 C17,97.9854682 18.9398816,100 21.3332487,100 Z" id="Path"></path>
                <path d="M21.3332487,135 L38.6667513,135 C41.0601184,135 43,132.985468 43,130.5 C43,128.014532 41.0601184,126 38.6667513,126 L21.3332487,126 C18.9398816,126 17,128.014532 17,130.5 C17,132.985468 18.9398816,135 21.3332487,135 Z" id="Path"></path>
                <path d="M21.3998969,118 L34.6001031,118 C37.0302817,118 39,115.985468 39,113.5 C39,111.014532 37.0302817,109 34.6001031,109 L21.3998969,109 C18.9697183,109 17,111.014532 17,113.5 C17,115.985468 18.9697183,118 21.3998969,118 Z" id="Path"></path>
                <path d="M117.666751,91 L100.333249,91 C97.9398816,91 96,93.0145318 96,95.5 C96,97.9854682 97.9398816,100 100.333249,100 L117.666751,100 C120.060118,100 122,97.9854682 122,95.5 C122,93.0145318 120.060118,91 117.666751,91 Z" id="Path"></path>
                <path d="M117.666751,126 L100.333249,126 C97.9398816,126 96,128.014532 96,130.5 C96,132.985468 97.9398816,135 100.333249,135 L117.666751,135 C120.060118,135 122,132.985468 122,130.5 C122,128.014532 120.060118,126 117.666751,126 Z" id="Path"></path>
                <path d="M117.600103,109 L104.399897,109 C101.969718,109 100,111.014532 100,113.5 C100,115.985468 101.969718,118 104.399897,118 L117.600103,118 C120.030282,118 122,115.985468 122,113.5 C122,111.014532 120.030282,109 117.600103,109 Z" id="Path"></path>
                <path d="M117.666815,143 L22.3331852,143 C19.9398532,143 18,145.014532 18,147.5 C18,149.985468 19.9398532,152 22.3331852,152 L117.666815,152 C120.060147,152 122,149.985468 122,147.5 C122,145.014532 120.060147,143 117.666815,143 Z" id="Path"></path>
                <path d="M117.666815,161 L22.3331852,161 C19.9398532,161 18,163.014532 18,165.5 C18,167.985468 19.9398532,170 22.3331852,170 L117.666815,170 C120.060147,170 122,167.985468 122,165.5 C122,163.014532 120.060147,161 117.666815,161 Z" id="Path"></path>
                <path d="M60.6393251,180.74986 C60.5375557,180.462747 60.4015116,180.188902 60.2343567,179.934694 L59.6943989,179.260165 C57.8915514,177.579945 55.107394,177.579945 53.3050738,179.260165 C53.1104992,179.472978 52.9301617,179.698529 52.765116,179.934694 C52.5963792,180.188372 52.4603351,180.462217 52.3601476,180.74986 C52.2304312,181.006722 52.1392079,181.281098 52.0901687,181.565026 C52.040075,181.864345 52.0100187,182.167379 52,182.470944 C52.0163464,183.670342 52.4824818,184.818793 53.3050738,185.686499 C54.1635224,186.520241 55.3072416,186.990447 56.5,187 C57.0884697,186.991509 57.6690298,186.866792 58.2100422,186.633281 C58.7536911,186.402424 59.2551558,186.082407 59.6949262,185.686499 C60.5159363,184.817732 60.9820717,183.669812 61,182.470944 C60.9905086,182.166848 60.9593977,181.864345 60.9056128,181.565026 C60.8597375,181.281098 60.7700961,181.006192 60.6393251,180.74986 Z" id="Path"></path>
                <path d="M60.6393251,198.750689 C60.5391376,198.463084 60.4030935,198.189275 60.2343567,197.935631 L59.6943989,197.256416 C57.8899695,195.581195 55.1095032,195.581195 53.3050738,197.256416 C53.1115538,197.471323 52.9312163,197.698436 52.765116,197.935631 C52.5947973,198.188214 52.4587532,198.462023 52.3601476,198.750689 C52.2304312,199.007517 52.1392079,199.281857 52.0901687,199.565747 C52.040075,199.865027 52.0100187,200.16802 52,200.471545 C52.0152918,201.670784 52.4814272,202.819613 53.3050738,203.686674 C54.1619405,204.522427 55.3067143,204.992571 56.5,205 C57.0879423,204.993102 57.6690298,204.869994 58.2100422,204.637575 C58.7547457,204.406748 59.2567378,204.085182 59.6949262,203.686674 C60.5164636,202.818552 60.982599,201.670253 61,200.471545 C60.9905086,200.16749 60.9588704,199.865027 60.9056128,199.565747 C60.8597375,199.281326 60.7700961,199.006456 60.6393251,198.750689 Z" id="Path"></path>
                <path d="M86.6393251,180.74986 C86.5370284,180.462747 86.4015116,180.188902 86.2343567,179.934694 L85.6943989,179.260165 C83.8915514,177.579945 81.107394,177.579945 79.3050738,179.260165 C79.1104992,179.472978 78.9301617,179.698529 78.765116,179.934694 C78.5963792,180.188372 78.4603351,180.462217 78.3601476,180.74986 C78.2304312,181.006722 78.1392079,181.281098 78.0901687,181.565026 C78.040075,181.864345 78.0100187,182.167379 78,182.470944 C78.0163464,183.670342 78.4824818,184.818793 79.3050738,185.686499 C80.1635224,186.520241 81.3072416,186.990447 82.5,187 C83.0884697,186.991509 83.6690298,186.866792 84.2100422,186.633281 C84.7536911,186.402424 85.2551558,186.082407 85.6949262,185.686499 C86.5159363,184.817732 86.9820717,183.669812 87,182.470944 C86.9905086,182.166848 86.9593977,181.864345 86.9056128,181.565026 C86.8597375,181.281098 86.7700961,181.006192 86.6393251,180.74986 Z" id="Path"></path>
                <path d="M86.6393251,198.750689 C86.5391376,198.463084 86.4030935,198.189275 86.2343567,197.935631 L85.6943989,197.256416 C83.8899695,195.581195 81.1095032,195.581195 79.3050738,197.256416 C79.1115538,197.471323 78.9312163,197.698436 78.765116,197.935631 C78.5947973,198.188214 78.4587532,198.462023 78.3601476,198.750689 C78.2304312,199.007517 78.1392079,199.281857 78.0901687,199.565747 C78.040075,199.865027 78.0100187,200.16802 78,200.471545 C78.0152918,201.670784 78.4814272,202.819613 79.3050738,203.686674 C80.1619405,204.522427 81.3067143,204.992571 82.5,205 C83.0879423,204.993102 83.6690298,204.869994 84.2100422,204.637575 C84.7547457,204.406748 85.2567378,204.085182 85.6949262,203.686674 C86.5164636,202.818552 86.982599,201.670253 87,200.471545 C86.9905086,200.16749 86.9588704,199.865027 86.9056128,199.565747 C86.8597375,199.281326 86.7700961,199.006456 86.6393251,198.750689 Z" id="Path"></path>
                <path d="M73.6393251,189.750689 C73.5391376,189.463084 73.4030935,189.189275 73.2343567,188.935631 L72.6943989,188.256416 C70.8899695,186.581195 68.1095032,186.581195 66.3050738,188.256416 C66.1115538,188.471323 65.9312163,188.698436 65.765116,188.935631 C65.5947973,189.188214 65.4587532,189.462023 65.3601476,189.750689 C65.2299039,190.007517 65.1392079,190.281857 65.0901687,190.565747 C65.040075,190.865027 65.0100187,191.16802 65,191.471545 C65.0152918,192.670784 65.4814272,193.819613 66.3050738,194.686674 C67.1619405,195.522427 68.3067143,195.992571 69.5,196 C70.0879423,195.993102 70.6690298,195.869994 71.2100422,195.637575 C71.7547457,195.406748 72.2567378,195.085182 72.6949262,194.686674 C73.5164636,193.818552 73.982599,192.670253 74,191.471545 C73.9905086,191.16749 73.9593977,190.865027 73.9056128,190.565747 C73.8597375,190.281857 73.7700961,190.006456 73.6393251,189.750689 Z" id="Path"></path>
                <path d="M60.6393251,215.74986 C60.5375557,215.462747 60.4015116,215.188902 60.2343567,214.934694 L59.6943989,214.260165 C57.8915514,212.579945 55.107394,212.579945 53.3050738,214.260165 C53.1104992,214.472978 52.9301617,214.698529 52.765116,214.934694 C52.5963792,215.188372 52.4603351,215.462217 52.3601476,215.74986 C52.2304312,216.006722 52.1392079,216.281098 52.0901687,216.565026 C52.040075,216.864345 52.0100187,217.167379 52,217.470944 C52.0163464,218.670342 52.4824818,219.818793 53.3050738,220.686499 C54.1635224,221.520241 55.3072416,221.990447 56.5,222 C57.0884697,221.991509 57.6690298,221.866792 58.2100422,221.633281 C58.7536911,221.402424 59.2551558,221.082407 59.6949262,220.68703 C60.5159363,219.818262 60.9820717,218.670342 61,217.471474 C60.9905086,217.167379 60.9593977,216.864876 60.9056128,216.565557 C60.8597375,216.281098 60.7700961,216.005661 60.6393251,215.74986 Z" id="Path"></path>
                <path d="M86.6393251,215.74986 C86.5370284,215.462747 86.4015116,215.188902 86.2343567,214.934694 L85.6943989,214.260165 C83.8915514,212.579945 81.107394,212.579945 79.3050738,214.260165 C79.1104992,214.472978 78.9301617,214.698529 78.765116,214.934694 C78.5963792,215.188372 78.4603351,215.462217 78.3601476,215.74986 C78.2304312,216.006722 78.1392079,216.281098 78.0901687,216.565026 C78.040075,216.864345 78.0100187,217.167379 78,217.470944 C78.0163464,218.670342 78.4824818,219.818793 79.3050738,220.686499 C80.1635224,221.520241 81.3072416,221.990447 82.5,222 C83.0884697,221.991509 83.6690298,221.866792 84.2100422,221.633281 C84.7536911,221.402424 85.2551558,221.082407 85.6949262,220.68703 C86.5159363,219.818262 86.9820717,218.670342 87,217.471474 C86.9905086,217.167379 86.9593977,216.864876 86.9056128,216.565557 C86.8597375,216.281098 86.7700961,216.005661 86.6393251,215.74986 Z" id="Path"></path>
                <path d="M60.6393251,232.750965 C60.5391376,232.463373 60.4030935,232.189576 60.2343567,231.935943 L59.6943989,231.256758 C57.8899695,229.581081 55.1095032,229.581081 53.3050738,231.256758 C53.1115538,231.471656 52.9312163,231.698759 52.765116,231.935943 C52.5947973,232.188515 52.4587532,232.462312 52.3601476,232.750965 C52.2304312,233.007782 52.1392079,233.282109 52.0901687,233.565988 C52.040075,233.865254 52.0100187,234.168234 52,234.471745 C52.0152918,235.670931 52.4814272,236.819709 53.3050738,237.686732 C54.1619405,238.522448 55.3067143,238.992571 56.5,239 C57.0879423,238.993102 57.6690298,238.87 58.2100422,238.637591 C58.7547457,238.406774 59.2567378,238.085222 59.6949262,237.686732 C60.5164636,236.818648 60.982599,235.670401 61,234.471745 C60.9905086,234.167703 60.9588704,233.865254 60.9056128,233.565988 C60.8597375,233.282109 60.7700961,233.006721 60.6393251,232.750965 Z" id="Path"></path>
                <path d="M86.6393251,232.750965 C86.5391376,232.463373 86.4030935,232.189576 86.2343567,231.935943 L85.6943989,231.256758 C83.8899695,229.581081 81.1095032,229.581081 79.3050738,231.256758 C79.1115538,231.471656 78.9312163,231.698759 78.765116,231.935943 C78.5947973,232.188515 78.4587532,232.462312 78.3601476,232.750965 C78.2304312,233.007782 78.1392079,233.282109 78.0901687,233.565988 C78.040075,233.865254 78.0100187,234.168234 78,234.471745 C78.0152918,235.670931 78.4814272,236.819709 79.3050738,237.686732 C80.1619405,238.522448 81.3067143,238.992571 82.5,239 C83.0879423,238.993102 83.6690298,238.87 84.2100422,238.637591 C84.7547457,238.406774 85.2567378,238.085222 85.6949262,237.686732 C86.5164636,236.818648 86.982599,235.670401 87,234.471745 C86.9905086,234.167703 86.9588704,233.865254 86.9056128,233.565988 C86.8597375,233.282109 86.7700961,233.006721 86.6393251,232.750965 Z" id="Path"></path>
                <path d="M73.6393251,206.74986 C73.5370284,206.462747 73.4015116,206.188902 73.2343567,205.934694 L72.6943989,205.260165 C70.8915514,203.579945 68.1079213,203.579945 66.3050738,205.260165 C66.1104992,205.472978 65.9301617,205.698529 65.765116,205.934694 C65.5963792,206.188372 65.4603351,206.462217 65.3601476,206.74986 C65.2299039,207.006722 65.1392079,207.281098 65.0901687,207.565026 C65.040075,207.864345 65.0100187,208.167379 65,208.470944 C65.0163464,209.670342 65.4824818,210.818793 66.3050738,211.686499 C67.1635224,212.520241 68.3072416,212.990447 69.5,213 C70.0884697,212.991509 70.6690298,212.866792 71.2100422,212.633281 C71.7536911,212.402424 72.2551558,212.082407 72.6949262,211.68703 C73.5159363,210.818262 73.9820717,209.670342 74,208.471474 C73.9905086,208.167379 73.9593977,207.864876 73.9056128,207.565557 C73.8597375,207.281098 73.7700961,207.006192 73.6393251,206.74986 Z" id="Path"></path>
                <path d="M73.6393251,224.746075 C73.538083,224.460045 73.4020389,224.187812 73.2343567,223.935745 L72.6943989,223.25649 C70.8899695,221.58117 68.1095032,221.58117 66.3050738,223.25649 C66.1104992,223.47088 65.9301617,223.697475 65.765116,223.935745 C65.5958519,224.187282 65.4592805,224.459514 65.3601476,224.746075 C65.2299039,225.00398 65.1392079,225.280458 65.0901687,225.565427 C65.040075,225.864724 65.0100187,226.167735 65,226.471278 C65.0152918,227.670588 65.4814272,228.819484 66.3050738,229.686596 C67.1635224,230.520276 68.3072416,230.990448 69.5,231 C70.0879423,230.993101 70.6690298,230.869986 71.2100422,230.637554 C71.7536911,230.405121 72.2556831,230.083536 72.6949262,229.686596 C73.5164636,228.818423 73.982599,227.670057 74,226.471278 C73.9910359,226.167205 73.9593977,225.864724 73.9056128,225.565427 C73.8597375,225.279927 73.7700961,225.003449 73.6393251,224.746075 Z" id="Path"></path>
                <path d="M221.85,0 L104.4,0 C84.4742813,0.0270175781 67.7402051,14.9998535 65.5064121,34.8001699 L21.7501699,34.8001699 C9.74366016,34.8144434 0.0142734375,44.5438301 0,56.5498301 L0,239.24983 C0.0142734375,251.25634 9.74366016,260.985727 21.7501699,261 L117.45,261 C126.087979,260.988785 133.900646,255.86666 137.355838,247.95 L221.85,247.95 C243.462023,247.926041 260.976041,230.412023 261,208.8 L261,39.15 C260.976041,17.5379766 243.462023,0.0239589844 221.85,0 Z M130.5,239.24983 C130.5,246.456896 124.657576,252.29983 117.45,252.29983 L21.7501699,252.29983 C14.5431035,252.29983 8.70016992,246.457406 8.70016992,239.24983 L8.70016992,56.5498301 C8.70016992,49.3427637 14.5431035,43.4998301 21.7501699,43.4998301 L117.45,43.4998301 C124.657066,43.4998301 130.5,49.3427637 130.5,56.5498301 L130.5,239.24983 Z M252.29983,208.8 C252.280459,225.609012 238.659012,239.230969 221.85,239.24983 L139.20017,239.24983 L139.20017,56.5498301 C139.185896,44.5438301 129.45651,34.8144434 117.45,34.7996602 L74.2978301,34.7996602 C76.4582168,19.8314121 89.2767832,8.71750195 104.4,8.69966016 L221.85,8.69966016 C238.659012,8.71903125 252.280969,22.3404785 252.29983,39.1494902 L252.29983,208.8 Z" id="Shape"></path>
                <g id="Group-2" transform="translate(148.000000, 19.000000)">
                    <g id="bitcoin">
                        <g id="Group">
                            <path d="M69.4294621,37.067284 C69.4294621,23.7053705 59.1256465,12.6930174 46.007735,11.4832761 L46.007735,2.10609568 C46.007735,0.942899035 45.0598246,0 43.8909186,0 L35.4236529,0 C34.2547469,0 33.3068365,0.942899035 33.3068365,2.10609568 L33.3068365,11.3729167 L29.0732036,11.3729167 L29.0732036,2.10609568 C29.0732036,0.942899035 28.1252932,0 26.9563872,0 L18.4891214,0 C17.3202154,0 16.372305,0.942899035 16.372305,2.10609568 L16.372305,11.3729167 L13.6553711,11.3729167 C13.6204436,11.3712318 13.5853045,11.3703894 13.5499537,11.3703894 L4.23596136,11.3703894 C1.9015362,11.3703894 0.00232849807,13.2599784 0.00232849807,15.5825807 L0.00232849807,21.4796486 C0.00232849807,23.8022509 1.9015362,25.69184 4.23596136,25.69184 L11.4331372,25.69184 L11.4331372,67.2055854 C11.4331372,68.3687821 12.3810476,73.6685336 13.5499537,73.6685336 C14.7188597,73.6685336 15.6667701,70.5472083 15.6667701,69.3840117 L15.6667701,23.5857443 C15.6667701,22.4225476 14.7188597,21.4796486 13.5499537,21.4796486 L4.23596136,21.4796486 L4.23596136,15.5825807 L13.4445362,15.5825807 C13.4794637,15.5842656 13.5146028,15.585108 13.5499537,15.585108 L18.4891214,15.585108 C19.6580275,15.585108 20.6059379,14.642209 20.6059379,13.4790123 L20.6059379,4.21219136 L24.8395707,4.21219136 L24.8395707,13.4790123 C24.8395707,14.642209 25.7874811,15.585108 26.9563872,15.585108 L35.4236529,15.585108 C36.5925589,15.585108 37.5404693,14.642209 37.5404693,13.4790123 L37.5404693,4.21219136 L41.7741022,4.21219136 L41.7741022,12.4198568 C41.5918443,12.7311378 41.4874852,13.092965 41.4874852,13.4790123 C41.4874852,14.642209 42.4353956,15.585108 43.6043017,15.585108 C55.5099123,15.585108 65.1958293,25.22197 65.1958293,37.067284 C65.1958293,42.8788444 62.8865942,48.3279457 58.6933926,52.4108228 C58.2863288,52.8069794 58.0570775,53.3497203 58.0570775,53.9160494 C58.0570775,54.4823785 58.2863288,55.0251194 58.6933926,55.421276 C62.8865942,59.504153 65.1958293,64.9532544 65.1958293,70.7648148 C65.1958293,82.6101287 55.5099123,92.2469907 43.6043017,92.2469907 C42.4353956,92.2469907 41.4874852,93.1898898 41.4874852,94.3530864 C41.4874852,94.7393444 41.5918443,95.100961 41.7741022,95.4122419 L41.7741022,103.619907 L37.5404693,103.619907 L37.5404693,94.3530864 C37.5404693,93.1898898 36.5925589,92.2469907 35.4236529,92.2469907 L26.9563872,92.2469907 C25.7874811,92.2469907 24.8395707,93.1898898 24.8395707,94.3530864 L24.8395707,103.619907 L20.6059379,103.619907 L20.6059379,94.3530864 C20.6059379,93.1898898 19.6580275,92.2469907 18.4891214,92.2469907 L4.23574968,92.2469907 L4.23574968,86.3499228 L13.549742,86.3499228 C14.718648,86.3499228 15.6665584,85.4070238 15.6665584,84.2438272 L15.6665584,62.4459475 C15.6665584,61.2827508 14.718648,60.3398518 13.549742,60.3398518 C12.3808359,60.3398518 11.4329255,61.2827508 11.4329255,62.4459475 L11.4329255,82.1377315 L4.23574968,82.1377315 C1.90132452,82.1377315 0.00211681643,84.0273205 0.00211681643,86.3499228 L0.00211681643,92.2469907 C0.00211681643,94.5695931 1.90132452,96.4591821 4.23574968,96.4591821 L16.3720933,96.4591821 L16.3720933,105.726003 C16.3720933,106.8892 17.3200037,107.832099 18.4889098,107.832099 L26.9561755,107.832099 C28.1250815,107.832099 29.0729919,106.8892 29.0729919,105.726003 L29.0729919,96.4591821 L33.3066248,96.4591821 L33.3066248,105.726003 C33.3066248,106.8892 34.2545352,107.832099 35.4234412,107.832099 L43.8907069,107.832099 C45.059613,107.832099 46.0075234,106.8892 46.0075234,105.726003 L46.0075234,96.3488227 C59.1256465,95.1390813 69.4294621,84.1267282 69.4294621,70.7648148 C69.4294621,64.5031818 67.1902937,58.5945303 63.0840932,53.9160494 C67.1905054,49.2375684 69.4294621,43.328917 69.4294621,37.067284 Z" id="Path"></path>
                            <path d="M24.8596805,80.8740741 C24.8596805,82.0372707 25.8075909,82.9801698 26.9764969,82.9801698 L42.9766656,82.9801698 C49.7466679,82.9801698 55.2542009,77.5003194 55.2542009,70.7648148 C55.2542009,64.0293102 49.7464562,58.5494599 42.9766656,58.5494599 L26.9764969,58.5494599 C25.8075909,58.5494599 24.8596805,59.4923589 24.8596805,60.6555556 L24.8596805,80.8740741 Z M29.0933134,62.7616512 L42.9766656,62.7616512 C47.4120311,62.7616512 51.020568,66.3519125 51.020568,70.7648148 C51.020568,75.1777171 47.4120311,78.7679784 42.9766656,78.7679784 L29.0933134,78.7679784 L29.0933134,62.7616512 L29.0933134,62.7616512 Z" id="Shape"></path>
                            <path d="M26.9764969,49.2826389 L42.9766656,49.2826389 C49.7466679,49.2826389 55.2542009,43.8027885 55.2542009,37.067284 C55.2542009,30.3317794 49.7464562,24.851929 42.9766656,24.851929 L26.9764969,24.851929 C25.8075909,24.851929 24.8596805,25.794828 24.8596805,26.9580247 L24.8596805,47.1765432 C24.8596805,48.3397399 25.8075909,49.2826389 26.9764969,49.2826389 Z M29.0933134,29.0641204 L42.9766656,29.0641204 C47.4120311,29.0641204 51.020568,32.6543817 51.020568,37.067284 C51.020568,41.4801862 47.4120311,45.0704475 42.9766656,45.0704475 L29.0933134,45.0704475 L29.0933134,29.0641204 L29.0933134,29.0641204 Z" id="Shape"></path>
                        </g>
                        <path d="M14.8367729,52.4014012 C14.4352929,52.0029223 13.8784013,51.7736898 13.3107172,51.7736898 C12.7430331,51.7736898 12.1861415,52.0029223 11.7846615,52.4014012 C11.3831815,52.79988 11.1522225,53.3504665 11.1522225,53.9160494 C11.1522225,54.47949 11.3833973,55.0322187 11.7846615,55.4306976 C12.1861415,55.8291765 12.7430331,56.058409 13.3107172,56.058409 C13.8784013,56.058409 14.4352929,55.8289623 14.8367729,55.4306976 C15.238253,55.0322187 15.4692119,54.47949 15.4692119,53.9160494 C15.4692119,53.3526088 15.2380371,52.79988 14.8367729,52.4014012 Z" id="Path"></path>
                    </g>
                    <g id="flash" transform="translate(27.568421, 105.288889)">
                        <path d="M34.0623807,14.4502469 C34.415603,14.7257381 34.836608,14.8590164 35.2538474,14.8590164 C35.823974,14.8590164 36.3895818,14.609585 36.7699171,14.132315 L36.8023022,14.0921082 C37.460546,13.2648897 37.3166965,12.0668748 36.4799585,11.415375 C35.6432205,10.7638752 34.4314191,10.9068329 33.772422,11.7333069 L33.7407901,11.7735136 C33.0817932,12.6007322 33.2256428,13.7987471 34.0623807,14.4502469 Z" id="Path"></path>
                        <path d="M30.3983385,92.7092227 C29.5289867,92.0331372 28.2680347,92.1797767 27.5827347,93.0364604 L25.150899,96.0734426 C24.8478008,96.4516182 24.4139079,96.6901005 23.928324,96.746441 C23.44274,96.8027814 22.9642048,96.6692622 22.580437,96.3705806 C22.0267146,95.9399233 21.7721746,95.2229332 21.9327306,94.5453042 C21.9483946,94.4789304 21.9601426,94.4125568 21.9679745,94.3461831 L30.3740594,58.9859864 C30.5134689,58.3986565 30.3732761,57.7804551 29.9934242,57.3081214 C29.6127889,56.8357877 29.0340043,56.5594879 28.4215419,56.5594879 L5.85676911,56.5594879 C4.83860901,56.5594879 4.00998359,55.743709 4.00998359,54.739614 C4.00998359,54.2695956 4.19090283,53.8235027 4.51984679,53.4839164 C4.56292264,53.4399246 4.60364923,53.3928454 4.64280913,53.344223 L32.895963,18.0588897 C33.5820463,17.2022061 33.4332382,15.9596288 32.5646696,15.2835433 C31.6945344,14.6082296 30.4343658,14.7540973 29.7482826,15.6107811 L1.54681989,50.8312843 C0.548239945,51.8994376 0,53.2832518 0,54.739614 C0,57.9216922 2.62763578,60.5110377 5.85676911,60.5110377 L25.8925894,60.5110377 L18.0159478,93.6446287 C17.9963677,93.7279817 17.9822702,93.8128783 17.9736549,93.8977748 C17.5797055,95.9839153 18.3957997,98.148778 20.0945603,99.4708492 C21.1362163,100.281997 22.3963849,100.711111 23.7035456,100.711111 C23.9330233,100.711111 24.1640671,100.697219 24.3958943,100.670978 C25.9450638,100.491924 27.3305444,99.7286262 28.2985795,98.5215512 L30.7304152,95.484569 C31.4164984,94.6278855 31.2676905,93.3853082 30.3983385,92.7092227 Z" id="Path"></path>
                        <path d="M63.5344108,40.0052677 L43.363084,40.0052677 L51.292997,7.02992698 C51.3134978,6.94620403 51.3276909,6.86171283 51.3355757,6.77798988 C51.7321897,4.70104498 50.9105759,2.54728999 49.2003262,1.23076491 C46.6566354,-0.72712429 42.9514886,-0.303132581 40.9416101,2.17552915 L27.4803916,19.1014011 C26.7904568,19.953993 29.7662438,17.2579589 30.640687,17.9300472 C31.5159184,18.6029036 29.3443982,22.9872237 30.0351214,22.1338635 L44.1097904,4.61271333 C44.7397995,3.83616324 45.9004669,3.70328183 46.6976372,4.31699452 C47.2551046,4.74559474 47.511366,5.45916064 47.3505127,6.13355315 C47.3347427,6.19960993 47.3229152,6.26566651 47.3142417,6.33172329 L38.8513049,41.5230352 C38.7109523,42.1075599 38.8520933,42.7228087 39.2353029,43.1928865 C39.6177238,43.6629642 40.2004231,43.9379445 40.8170275,43.9379445 L63.5344108,43.9379445 C64.5602452,43.9379445 65.394475,44.7505951 65.394475,45.7491263 C65.394475,46.2168998 65.2115437,46.6608622 64.880375,46.9988266 C64.8370076,47.0433765 64.7960058,47.0894624 64.7573695,47.1378528 L25.1290938,96.0612731 C24.4383708,96.913865 26.6051602,95.2324921 27.4803916,95.9053486 C27.8509852,96.1895458 29.5975058,96.0612731 30.0351214,96.0612731 L67.8735091,49.6387894 C68.8788427,48.5757377 69.4315789,47.1985328 69.4315789,45.7491263 C69.4315789,42.5814781 66.7861719,40.0052677 63.5344108,40.0052677 Z" id="Path"></path>
                        <path d="M35.3734693,86.2638488 C34.538289,85.6101306 33.3258091,85.7501067 32.6653462,86.5750724 L32.6329633,86.6152782 C31.9717474,87.4402439 32.1125759,88.6389758 32.9477562,89.292694 C33.3017101,89.5704128 33.7241953,89.7044323 34.1429151,89.7044323 C34.7122536,89.7044323 35.2755673,89.4564959 35.6558793,88.9814706 L35.6882623,88.9412646 C36.348725,88.1155544 36.2078965,86.9168225 35.3734693,86.2638488 Z" id="Path"></path>
                    </g>
                </g>
            </g>
            <g id="server-copy" transform="translate(600.000000, 547.000000)" fill="#000000" fill-rule="nonzero">
                <path d="M113.333206,52 L26.6667936,52 C21.8801764,52 18,55.837513 18,60.5715003 L18,73.4284997 C18,78.162487 21.8801764,82 26.6667936,82 L113.333206,82 C118.119824,82 122,78.162487 122,73.4284997 L122,60.5715003 C121.999492,55.837513 118.119316,52 113.333206,52 Z M113.333206,73.4284997 L26.6667936,73.4284997 L26.6667936,60.5715003 L113.333206,60.5715003 L113.333206,73.4284997 Z" id="Shape"></path>
                <path d="M92,113 C92,100.849907 82.1500926,91 70,91 C57.8499074,91 48,100.849907 48,113 C48,125.150093 57.8493918,135 70,135 C82.1444207,134.985047 91.9855626,125.143905 92,113 Z M56.8001031,113 C56.8001031,105.710151 62.7096351,99.8001031 70,99.8001031 C77.2903649,99.8001031 83.1998969,105.710151 83.1998969,113 C83.1998969,120.289849 77.2898493,126.199897 70,126.199897 C62.7101507,126.199897 56.8001031,120.289849 56.8001031,113 Z" id="Shape"></path>
                <path d="M21.3332487,100 L38.6667513,100 C41.0601184,100 43,97.9854682 43,95.5 C43,93.0145318 41.0601184,91 38.6667513,91 L21.3332487,91 C18.9398816,91 17,93.0145318 17,95.5 C17,97.9854682 18.9398816,100 21.3332487,100 Z" id="Path"></path>
                <path d="M21.3332487,135 L38.6667513,135 C41.0601184,135 43,132.985468 43,130.5 C43,128.014532 41.0601184,126 38.6667513,126 L21.3332487,126 C18.9398816,126 17,128.014532 17,130.5 C17,132.985468 18.9398816,135 21.3332487,135 Z" id="Path"></path>
                <path d="M21.3998969,118 L34.6001031,118 C37.0302817,118 39,115.985468 39,113.5 C39,111.014532 37.0302817,109 34.6001031,109 L21.3998969,109 C18.9697183,109 17,111.014532 17,113.5 C17,115.985468 18.9697183,118 21.3998969,118 Z" id="Path"></path>
                <path d="M117.666751,91 L100.333249,91 C97.9398816,91 96,93.0145318 96,95.5 C96,97.9854682 97.9398816,100 100.333249,100 L117.666751,100 C120.060118,100 122,97.9854682 122,95.5 C122,93.0145318 120.060118,91 117.666751,91 Z" id="Path"></path>
                <path d="M117.666751,126 L100.333249,126 C97.9398816,126 96,128.014532 96,130.5 C96,132.985468 97.9398816,135 100.333249,135 L117.666751,135 C120.060118,135 122,132.985468 122,130.5 C122,128.014532 120.060118,126 117.666751,126 Z" id="Path"></path>
                <path d="M117.600103,109 L104.399897,109 C101.969718,109 100,111.014532 100,113.5 C100,115.985468 101.969718,118 104.399897,118 L117.600103,118 C120.030282,118 122,115.985468 122,113.5 C122,111.014532 120.030282,109 117.600103,109 Z" id="Path"></path>
                <path d="M117.666815,143 L22.3331852,143 C19.9398532,143 18,145.014532 18,147.5 C18,149.985468 19.9398532,152 22.3331852,152 L117.666815,152 C120.060147,152 122,149.985468 122,147.5 C122,145.014532 120.060147,143 117.666815,143 Z" id="Path"></path>
                <path d="M117.666815,161 L22.3331852,161 C19.9398532,161 18,163.014532 18,165.5 C18,167.985468 19.9398532,170 22.3331852,170 L117.666815,170 C120.060147,170 122,167.985468 122,165.5 C122,163.014532 120.060147,161 117.666815,161 Z" id="Path"></path>
                <path d="M60.6393251,180.74986 C60.5375557,180.462747 60.4015116,180.188902 60.2343567,179.934694 L59.6943989,179.260165 C57.8915514,177.579945 55.107394,177.579945 53.3050738,179.260165 C53.1104992,179.472978 52.9301617,179.698529 52.765116,179.934694 C52.5963792,180.188372 52.4603351,180.462217 52.3601476,180.74986 C52.2304312,181.006722 52.1392079,181.281098 52.0901687,181.565026 C52.040075,181.864345 52.0100187,182.167379 52,182.470944 C52.0163464,183.670342 52.4824818,184.818793 53.3050738,185.686499 C54.1635224,186.520241 55.3072416,186.990447 56.5,187 C57.0884697,186.991509 57.6690298,186.866792 58.2100422,186.633281 C58.7536911,186.402424 59.2551558,186.082407 59.6949262,185.686499 C60.5159363,184.817732 60.9820717,183.669812 61,182.470944 C60.9905086,182.166848 60.9593977,181.864345 60.9056128,181.565026 C60.8597375,181.281098 60.7700961,181.006192 60.6393251,180.74986 Z" id="Path"></path>
                <path d="M60.6393251,198.750689 C60.5391376,198.463084 60.4030935,198.189275 60.2343567,197.935631 L59.6943989,197.256416 C57.8899695,195.581195 55.1095032,195.581195 53.3050738,197.256416 C53.1115538,197.471323 52.9312163,197.698436 52.765116,197.935631 C52.5947973,198.188214 52.4587532,198.462023 52.3601476,198.750689 C52.2304312,199.007517 52.1392079,199.281857 52.0901687,199.565747 C52.040075,199.865027 52.0100187,200.16802 52,200.471545 C52.0152918,201.670784 52.4814272,202.819613 53.3050738,203.686674 C54.1619405,204.522427 55.3067143,204.992571 56.5,205 C57.0879423,204.993102 57.6690298,204.869994 58.2100422,204.637575 C58.7547457,204.406748 59.2567378,204.085182 59.6949262,203.686674 C60.5164636,202.818552 60.982599,201.670253 61,200.471545 C60.9905086,200.16749 60.9588704,199.865027 60.9056128,199.565747 C60.8597375,199.281326 60.7700961,199.006456 60.6393251,198.750689 Z" id="Path"></path>
                <path d="M86.6393251,180.74986 C86.5370284,180.462747 86.4015116,180.188902 86.2343567,179.934694 L85.6943989,179.260165 C83.8915514,177.579945 81.107394,177.579945 79.3050738,179.260165 C79.1104992,179.472978 78.9301617,179.698529 78.765116,179.934694 C78.5963792,180.188372 78.4603351,180.462217 78.3601476,180.74986 C78.2304312,181.006722 78.1392079,181.281098 78.0901687,181.565026 C78.040075,181.864345 78.0100187,182.167379 78,182.470944 C78.0163464,183.670342 78.4824818,184.818793 79.3050738,185.686499 C80.1635224,186.520241 81.3072416,186.990447 82.5,187 C83.0884697,186.991509 83.6690298,186.866792 84.2100422,186.633281 C84.7536911,186.402424 85.2551558,186.082407 85.6949262,185.686499 C86.5159363,184.817732 86.9820717,183.669812 87,182.470944 C86.9905086,182.166848 86.9593977,181.864345 86.9056128,181.565026 C86.8597375,181.281098 86.7700961,181.006192 86.6393251,180.74986 Z" id="Path"></path>
                <path d="M86.6393251,198.750689 C86.5391376,198.463084 86.4030935,198.189275 86.2343567,197.935631 L85.6943989,197.256416 C83.8899695,195.581195 81.1095032,195.581195 79.3050738,197.256416 C79.1115538,197.471323 78.9312163,197.698436 78.765116,197.935631 C78.5947973,198.188214 78.4587532,198.462023 78.3601476,198.750689 C78.2304312,199.007517 78.1392079,199.281857 78.0901687,199.565747 C78.040075,199.865027 78.0100187,200.16802 78,200.471545 C78.0152918,201.670784 78.4814272,202.819613 79.3050738,203.686674 C80.1619405,204.522427 81.3067143,204.992571 82.5,205 C83.0879423,204.993102 83.6690298,204.869994 84.2100422,204.637575 C84.7547457,204.406748 85.2567378,204.085182 85.6949262,203.686674 C86.5164636,202.818552 86.982599,201.670253 87,200.471545 C86.9905086,200.16749 86.9588704,199.865027 86.9056128,199.565747 C86.8597375,199.281326 86.7700961,199.006456 86.6393251,198.750689 Z" id="Path"></path>
                <path d="M73.6393251,189.750689 C73.5391376,189.463084 73.4030935,189.189275 73.2343567,188.935631 L72.6943989,188.256416 C70.8899695,186.581195 68.1095032,186.581195 66.3050738,188.256416 C66.1115538,188.471323 65.9312163,188.698436 65.765116,188.935631 C65.5947973,189.188214 65.4587532,189.462023 65.3601476,189.750689 C65.2299039,190.007517 65.1392079,190.281857 65.0901687,190.565747 C65.040075,190.865027 65.0100187,191.16802 65,191.471545 C65.0152918,192.670784 65.4814272,193.819613 66.3050738,194.686674 C67.1619405,195.522427 68.3067143,195.992571 69.5,196 C70.0879423,195.993102 70.6690298,195.869994 71.2100422,195.637575 C71.7547457,195.406748 72.2567378,195.085182 72.6949262,194.686674 C73.5164636,193.818552 73.982599,192.670253 74,191.471545 C73.9905086,191.16749 73.9593977,190.865027 73.9056128,190.565747 C73.8597375,190.281857 73.7700961,190.006456 73.6393251,189.750689 Z" id="Path"></path>
                <path d="M60.6393251,215.74986 C60.5375557,215.462747 60.4015116,215.188902 60.2343567,214.934694 L59.6943989,214.260165 C57.8915514,212.579945 55.107394,212.579945 53.3050738,214.260165 C53.1104992,214.472978 52.9301617,214.698529 52.765116,214.934694 C52.5963792,215.188372 52.4603351,215.462217 52.3601476,215.74986 C52.2304312,216.006722 52.1392079,216.281098 52.0901687,216.565026 C52.040075,216.864345 52.0100187,217.167379 52,217.470944 C52.0163464,218.670342 52.4824818,219.818793 53.3050738,220.686499 C54.1635224,221.520241 55.3072416,221.990447 56.5,222 C57.0884697,221.991509 57.6690298,221.866792 58.2100422,221.633281 C58.7536911,221.402424 59.2551558,221.082407 59.6949262,220.68703 C60.5159363,219.818262 60.9820717,218.670342 61,217.471474 C60.9905086,217.167379 60.9593977,216.864876 60.9056128,216.565557 C60.8597375,216.281098 60.7700961,216.005661 60.6393251,215.74986 Z" id="Path"></path>
                <path d="M86.6393251,215.74986 C86.5370284,215.462747 86.4015116,215.188902 86.2343567,214.934694 L85.6943989,214.260165 C83.8915514,212.579945 81.107394,212.579945 79.3050738,214.260165 C79.1104992,214.472978 78.9301617,214.698529 78.765116,214.934694 C78.5963792,215.188372 78.4603351,215.462217 78.3601476,215.74986 C78.2304312,216.006722 78.1392079,216.281098 78.0901687,216.565026 C78.040075,216.864345 78.0100187,217.167379 78,217.470944 C78.0163464,218.670342 78.4824818,219.818793 79.3050738,220.686499 C80.1635224,221.520241 81.3072416,221.990447 82.5,222 C83.0884697,221.991509 83.6690298,221.866792 84.2100422,221.633281 C84.7536911,221.402424 85.2551558,221.082407 85.6949262,220.68703 C86.5159363,219.818262 86.9820717,218.670342 87,217.471474 C86.9905086,217.167379 86.9593977,216.864876 86.9056128,216.565557 C86.8597375,216.281098 86.7700961,216.005661 86.6393251,215.74986 Z" id="Path"></path>
                <path d="M60.6393251,232.750965 C60.5391376,232.463373 60.4030935,232.189576 60.2343567,231.935943 L59.6943989,231.256758 C57.8899695,229.581081 55.1095032,229.581081 53.3050738,231.256758 C53.1115538,231.471656 52.9312163,231.698759 52.765116,231.935943 C52.5947973,232.188515 52.4587532,232.462312 52.3601476,232.750965 C52.2304312,233.007782 52.1392079,233.282109 52.0901687,233.565988 C52.040075,233.865254 52.0100187,234.168234 52,234.471745 C52.0152918,235.670931 52.4814272,236.819709 53.3050738,237.686732 C54.1619405,238.522448 55.3067143,238.992571 56.5,239 C57.0879423,238.993102 57.6690298,238.87 58.2100422,238.637591 C58.7547457,238.406774 59.2567378,238.085222 59.6949262,237.686732 C60.5164636,236.818648 60.982599,235.670401 61,234.471745 C60.9905086,234.167703 60.9588704,233.865254 60.9056128,233.565988 C60.8597375,233.282109 60.7700961,233.006721 60.6393251,232.750965 Z" id="Path"></path>
                <path d="M86.6393251,232.750965 C86.5391376,232.463373 86.4030935,232.189576 86.2343567,231.935943 L85.6943989,231.256758 C83.8899695,229.581081 81.1095032,229.581081 79.3050738,231.256758 C79.1115538,231.471656 78.9312163,231.698759 78.765116,231.935943 C78.5947973,232.188515 78.4587532,232.462312 78.3601476,232.750965 C78.2304312,233.007782 78.1392079,233.282109 78.0901687,233.565988 C78.040075,233.865254 78.0100187,234.168234 78,234.471745 C78.0152918,235.670931 78.4814272,236.819709 79.3050738,237.686732 C80.1619405,238.522448 81.3067143,238.992571 82.5,239 C83.0879423,238.993102 83.6690298,238.87 84.2100422,238.637591 C84.7547457,238.406774 85.2567378,238.085222 85.6949262,237.686732 C86.5164636,236.818648 86.982599,235.670401 87,234.471745 C86.9905086,234.167703 86.9588704,233.865254 86.9056128,233.565988 C86.8597375,233.282109 86.7700961,233.006721 86.6393251,232.750965 Z" id="Path"></path>
                <path d="M73.6393251,206.74986 C73.5370284,206.462747 73.4015116,206.188902 73.2343567,205.934694 L72.6943989,205.260165 C70.8915514,203.579945 68.1079213,203.579945 66.3050738,205.260165 C66.1104992,205.472978 65.9301617,205.698529 65.765116,205.934694 C65.5963792,206.188372 65.4603351,206.462217 65.3601476,206.74986 C65.2299039,207.006722 65.1392079,207.281098 65.0901687,207.565026 C65.040075,207.864345 65.0100187,208.167379 65,208.470944 C65.0163464,209.670342 65.4824818,210.818793 66.3050738,211.686499 C67.1635224,212.520241 68.3072416,212.990447 69.5,213 C70.0884697,212.991509 70.6690298,212.866792 71.2100422,212.633281 C71.7536911,212.402424 72.2551558,212.082407 72.6949262,211.68703 C73.5159363,210.818262 73.9820717,209.670342 74,208.471474 C73.9905086,208.167379 73.9593977,207.864876 73.9056128,207.565557 C73.8597375,207.281098 73.7700961,207.006192 73.6393251,206.74986 Z" id="Path"></path>
                <path d="M73.6393251,224.746075 C73.538083,224.460045 73.4020389,224.187812 73.2343567,223.935745 L72.6943989,223.25649 C70.8899695,221.58117 68.1095032,221.58117 66.3050738,223.25649 C66.1104992,223.47088 65.9301617,223.697475 65.765116,223.935745 C65.5958519,224.187282 65.4592805,224.459514 65.3601476,224.746075 C65.2299039,225.00398 65.1392079,225.280458 65.0901687,225.565427 C65.040075,225.864724 65.0100187,226.167735 65,226.471278 C65.0152918,227.670588 65.4814272,228.819484 66.3050738,229.686596 C67.1635224,230.520276 68.3072416,230.990448 69.5,231 C70.0879423,230.993101 70.6690298,230.869986 71.2100422,230.637554 C71.7536911,230.405121 72.2556831,230.083536 72.6949262,229.686596 C73.5164636,228.818423 73.982599,227.670057 74,226.471278 C73.9910359,226.167205 73.9593977,225.864724 73.9056128,225.565427 C73.8597375,225.279927 73.7700961,225.003449 73.6393251,224.746075 Z" id="Path"></path>
                <path d="M221.85,0 L104.4,0 C84.4742813,0.0270175781 67.7402051,14.9998535 65.5064121,34.8001699 L21.7501699,34.8001699 C9.74366016,34.8144434 0.0142734375,44.5438301 0,56.5498301 L0,239.24983 C0.0142734375,251.25634 9.74366016,260.985727 21.7501699,261 L117.45,261 C126.087979,260.988785 133.900646,255.86666 137.355838,247.95 L221.85,247.95 C243.462023,247.926041 260.976041,230.412023 261,208.8 L261,39.15 C260.976041,17.5379766 243.462023,0.0239589844 221.85,0 Z M130.5,239.24983 C130.5,246.456896 124.657576,252.29983 117.45,252.29983 L21.7501699,252.29983 C14.5431035,252.29983 8.70016992,246.457406 8.70016992,239.24983 L8.70016992,56.5498301 C8.70016992,49.3427637 14.5431035,43.4998301 21.7501699,43.4998301 L117.45,43.4998301 C124.657066,43.4998301 130.5,49.3427637 130.5,56.5498301 L130.5,239.24983 Z M252.29983,208.8 C252.280459,225.609012 238.659012,239.230969 221.85,239.24983 L139.20017,239.24983 L139.20017,56.5498301 C139.185896,44.5438301 129.45651,34.8144434 117.45,34.7996602 L74.2978301,34.7996602 C76.4582168,19.8314121 89.2767832,8.71750195 104.4,8.69966016 L221.85,8.69966016 C238.659012,8.71903125 252.280969,22.3404785 252.29983,39.1494902 L252.29983,208.8 Z" id="Shape"></path>
                <g id="Group-2" transform="translate(148.000000, 19.000000)">
                    <g id="bitcoin">
                        <g id="Group">
                            <path d="M69.4294621,37.067284 C69.4294621,23.7053705 59.1256465,12.6930174 46.007735,11.4832761 L46.007735,2.10609568 C46.007735,0.942899035 45.0598246,0 43.8909186,0 L35.4236529,0 C34.2547469,0 33.3068365,0.942899035 33.3068365,2.10609568 L33.3068365,11.3729167 L29.0732036,11.3729167 L29.0732036,2.10609568 C29.0732036,0.942899035 28.1252932,0 26.9563872,0 L18.4891214,0 C17.3202154,0 16.372305,0.942899035 16.372305,2.10609568 L16.372305,11.3729167 L13.6553711,11.3729167 C13.6204436,11.3712318 13.5853045,11.3703894 13.5499537,11.3703894 L4.23596136,11.3703894 C1.9015362,11.3703894 0.00232849807,13.2599784 0.00232849807,15.5825807 L0.00232849807,21.4796486 C0.00232849807,23.8022509 1.9015362,25.69184 4.23596136,25.69184 L11.4331372,25.69184 L11.4331372,67.2055854 C11.4331372,68.3687821 12.3810476,73.6685336 13.5499537,73.6685336 C14.7188597,73.6685336 15.6667701,70.5472083 15.6667701,69.3840117 L15.6667701,23.5857443 C15.6667701,22.4225476 14.7188597,21.4796486 13.5499537,21.4796486 L4.23596136,21.4796486 L4.23596136,15.5825807 L13.4445362,15.5825807 C13.4794637,15.5842656 13.5146028,15.585108 13.5499537,15.585108 L18.4891214,15.585108 C19.6580275,15.585108 20.6059379,14.642209 20.6059379,13.4790123 L20.6059379,4.21219136 L24.8395707,4.21219136 L24.8395707,13.4790123 C24.8395707,14.642209 25.7874811,15.585108 26.9563872,15.585108 L35.4236529,15.585108 C36.5925589,15.585108 37.5404693,14.642209 37.5404693,13.4790123 L37.5404693,4.21219136 L41.7741022,4.21219136 L41.7741022,12.4198568 C41.5918443,12.7311378 41.4874852,13.092965 41.4874852,13.4790123 C41.4874852,14.642209 42.4353956,15.585108 43.6043017,15.585108 C55.5099123,15.585108 65.1958293,25.22197 65.1958293,37.067284 C65.1958293,42.8788444 62.8865942,48.3279457 58.6933926,52.4108228 C58.2863288,52.8069794 58.0570775,53.3497203 58.0570775,53.9160494 C58.0570775,54.4823785 58.2863288,55.0251194 58.6933926,55.421276 C62.8865942,59.504153 65.1958293,64.9532544 65.1958293,70.7648148 C65.1958293,82.6101287 55.5099123,92.2469907 43.6043017,92.2469907 C42.4353956,92.2469907 41.4874852,93.1898898 41.4874852,94.3530864 C41.4874852,94.7393444 41.5918443,95.100961 41.7741022,95.4122419 L41.7741022,103.619907 L37.5404693,103.619907 L37.5404693,94.3530864 C37.5404693,93.1898898 36.5925589,92.2469907 35.4236529,92.2469907 L26.9563872,92.2469907 C25.7874811,92.2469907 24.8395707,93.1898898 24.8395707,94.3530864 L24.8395707,103.619907 L20.6059379,103.619907 L20.6059379,94.3530864 C20.6059379,93.1898898 19.6580275,92.2469907 18.4891214,92.2469907 L4.23574968,92.2469907 L4.23574968,86.3499228 L13.549742,86.3499228 C14.718648,86.3499228 15.6665584,85.4070238 15.6665584,84.2438272 L15.6665584,62.4459475 C15.6665584,61.2827508 14.718648,60.3398518 13.549742,60.3398518 C12.3808359,60.3398518 11.4329255,61.2827508 11.4329255,62.4459475 L11.4329255,82.1377315 L4.23574968,82.1377315 C1.90132452,82.1377315 0.00211681643,84.0273205 0.00211681643,86.3499228 L0.00211681643,92.2469907 C0.00211681643,94.5695931 1.90132452,96.4591821 4.23574968,96.4591821 L16.3720933,96.4591821 L16.3720933,105.726003 C16.3720933,106.8892 17.3200037,107.832099 18.4889098,107.832099 L26.9561755,107.832099 C28.1250815,107.832099 29.0729919,106.8892 29.0729919,105.726003 L29.0729919,96.4591821 L33.3066248,96.4591821 L33.3066248,105.726003 C33.3066248,106.8892 34.2545352,107.832099 35.4234412,107.832099 L43.8907069,107.832099 C45.059613,107.832099 46.0075234,106.8892 46.0075234,105.726003 L46.0075234,96.3488227 C59.1256465,95.1390813 69.4294621,84.1267282 69.4294621,70.7648148 C69.4294621,64.5031818 67.1902937,58.5945303 63.0840932,53.9160494 C67.1905054,49.2375684 69.4294621,43.328917 69.4294621,37.067284 Z" id="Path"></path>
                            <path d="M24.8596805,80.8740741 C24.8596805,82.0372707 25.8075909,82.9801698 26.9764969,82.9801698 L42.9766656,82.9801698 C49.7466679,82.9801698 55.2542009,77.5003194 55.2542009,70.7648148 C55.2542009,64.0293102 49.7464562,58.5494599 42.9766656,58.5494599 L26.9764969,58.5494599 C25.8075909,58.5494599 24.8596805,59.4923589 24.8596805,60.6555556 L24.8596805,80.8740741 Z M29.0933134,62.7616512 L42.9766656,62.7616512 C47.4120311,62.7616512 51.020568,66.3519125 51.020568,70.7648148 C51.020568,75.1777171 47.4120311,78.7679784 42.9766656,78.7679784 L29.0933134,78.7679784 L29.0933134,62.7616512 L29.0933134,62.7616512 Z" id="Shape"></path>
                            <path d="M26.9764969,49.2826389 L42.9766656,49.2826389 C49.7466679,49.2826389 55.2542009,43.8027885 55.2542009,37.067284 C55.2542009,30.3317794 49.7464562,24.851929 42.9766656,24.851929 L26.9764969,24.851929 C25.8075909,24.851929 24.8596805,25.794828 24.8596805,26.9580247 L24.8596805,47.1765432 C24.8596805,48.3397399 25.8075909,49.2826389 26.9764969,49.2826389 Z M29.0933134,29.0641204 L42.9766656,29.0641204 C47.4120311,29.0641204 51.020568,32.6543817 51.020568,37.067284 C51.020568,41.4801862 47.4120311,45.0704475 42.9766656,45.0704475 L29.0933134,45.0704475 L29.0933134,29.0641204 L29.0933134,29.0641204 Z" id="Shape"></path>
                        </g>
                        <path d="M14.8367729,52.4014012 C14.4352929,52.0029223 13.8784013,51.7736898 13.3107172,51.7736898 C12.7430331,51.7736898 12.1861415,52.0029223 11.7846615,52.4014012 C11.3831815,52.79988 11.1522225,53.3504665 11.1522225,53.9160494 C11.1522225,54.47949 11.3833973,55.0322187 11.7846615,55.4306976 C12.1861415,55.8291765 12.7430331,56.058409 13.3107172,56.058409 C13.8784013,56.058409 14.4352929,55.8289623 14.8367729,55.4306976 C15.238253,55.0322187 15.4692119,54.47949 15.4692119,53.9160494 C15.4692119,53.3526088 15.2380371,52.79988 14.8367729,52.4014012 Z" id="Path"></path>
                    </g>
                    <g id="flash" transform="translate(27.568421, 105.288889)">
                        <path d="M34.0623807,14.4502469 C34.415603,14.7257381 34.836608,14.8590164 35.2538474,14.8590164 C35.823974,14.8590164 36.3895818,14.609585 36.7699171,14.132315 L36.8023022,14.0921082 C37.460546,13.2648897 37.3166965,12.0668748 36.4799585,11.415375 C35.6432205,10.7638752 34.4314191,10.9068329 33.772422,11.7333069 L33.7407901,11.7735136 C33.0817932,12.6007322 33.2256428,13.7987471 34.0623807,14.4502469 Z" id="Path"></path>
                        <path d="M30.3983385,92.7092227 C29.5289867,92.0331372 28.2680347,92.1797767 27.5827347,93.0364604 L25.150899,96.0734426 C24.8478008,96.4516182 24.4139079,96.6901005 23.928324,96.746441 C23.44274,96.8027814 22.9642048,96.6692622 22.580437,96.3705806 C22.0267146,95.9399233 21.7721746,95.2229332 21.9327306,94.5453042 C21.9483946,94.4789304 21.9601426,94.4125568 21.9679745,94.3461831 L30.3740594,58.9859864 C30.5134689,58.3986565 30.3732761,57.7804551 29.9934242,57.3081214 C29.6127889,56.8357877 29.0340043,56.5594879 28.4215419,56.5594879 L5.85676911,56.5594879 C4.83860901,56.5594879 4.00998359,55.743709 4.00998359,54.739614 C4.00998359,54.2695956 4.19090283,53.8235027 4.51984679,53.4839164 C4.56292264,53.4399246 4.60364923,53.3928454 4.64280913,53.344223 L32.895963,18.0588897 C33.5820463,17.2022061 33.4332382,15.9596288 32.5646696,15.2835433 C31.6945344,14.6082296 30.4343658,14.7540973 29.7482826,15.6107811 L1.54681989,50.8312843 C0.548239945,51.8994376 0,53.2832518 0,54.739614 C0,57.9216922 2.62763578,60.5110377 5.85676911,60.5110377 L25.8925894,60.5110377 L18.0159478,93.6446287 C17.9963677,93.7279817 17.9822702,93.8128783 17.9736549,93.8977748 C17.5797055,95.9839153 18.3957997,98.148778 20.0945603,99.4708492 C21.1362163,100.281997 22.3963849,100.711111 23.7035456,100.711111 C23.9330233,100.711111 24.1640671,100.697219 24.3958943,100.670978 C25.9450638,100.491924 27.3305444,99.7286262 28.2985795,98.5215512 L30.7304152,95.484569 C31.4164984,94.6278855 31.2676905,93.3853082 30.3983385,92.7092227 Z" id="Path"></path>
                        <path d="M63.5344108,40.0052677 L43.363084,40.0052677 L51.292997,7.02992698 C51.3134978,6.94620403 51.3276909,6.86171283 51.3355757,6.77798988 C51.7321897,4.70104498 50.9105759,2.54728999 49.2003262,1.23076491 C46.6566354,-0.72712429 42.9514886,-0.303132581 40.9416101,2.17552915 L27.4803916,19.1014011 C26.7904568,19.953993 29.7662438,17.2579589 30.640687,17.9300472 C31.5159184,18.6029036 29.3443982,22.9872237 30.0351214,22.1338635 L44.1097904,4.61271333 C44.7397995,3.83616324 45.9004669,3.70328183 46.6976372,4.31699452 C47.2551046,4.74559474 47.511366,5.45916064 47.3505127,6.13355315 C47.3347427,6.19960993 47.3229152,6.26566651 47.3142417,6.33172329 L38.8513049,41.5230352 C38.7109523,42.1075599 38.8520933,42.7228087 39.2353029,43.1928865 C39.6177238,43.6629642 40.2004231,43.9379445 40.8170275,43.9379445 L63.5344108,43.9379445 C64.5602452,43.9379445 65.394475,44.7505951 65.394475,45.7491263 C65.394475,46.2168998 65.2115437,46.6608622 64.880375,46.9988266 C64.8370076,47.0433765 64.7960058,47.0894624 64.7573695,47.1378528 L25.1290938,96.0612731 C24.4383708,96.913865 26.6051602,95.2324921 27.4803916,95.9053486 C27.8509852,96.1895458 29.5975058,96.0612731 30.0351214,96.0612731 L67.8735091,49.6387894 C68.8788427,48.5757377 69.4315789,47.1985328 69.4315789,45.7491263 C69.4315789,42.5814781 66.7861719,40.0052677 63.5344108,40.0052677 Z" id="Path"></path>
                        <path d="M35.3734693,86.2638488 C34.538289,85.6101306 33.3258091,85.7501067 32.6653462,86.5750724 L32.6329633,86.6152782 C31.9717474,87.4402439 32.1125759,88.6389758 32.9477562,89.292694 C33.3017101,89.5704128 33.7241953,89.7044323 34.1429151,89.7044323 C34.7122536,89.7044323 35.2755673,89.4564959 35.6558793,88.9814706 L35.6882623,88.9412646 C36.348725,88.1155544 36.2078965,86.9168225 35.3734693,86.2638488 Z" id="Path"></path>
                    </g>
                </g>
            </g>
            <g id="devices" transform="translate(59.000000, 107.000000)" fill="#000000" fill-rule="nonzero">
                <path d="M247.515653,100.318975 L217.500595,100.318975 L217.500595,21.8082061 C217.485811,9.76988825 207.756406,0.0143118589 195.750382,0 L65.2501274,0 C53.244104,0.0143118589 43.5146983,9.76988825 43.499915,21.8087173 L43.499915,47.9789735 L19.6357005,47.9789735 C8.79602304,47.9907297 0.0117246323,56.7986566 0,67.6674911 L0,185.311482 C0.0117246323,196.180317 8.79602304,204.988244 19.6357005,205 L89.1138323,205 C97.3924422,204.974954 104.763668,199.738347 107.5317,191.914872 L182.700357,191.914872 C185.102887,191.914872 187.050195,189.962325 187.050195,187.553333 L187.050195,178.829744 C187.050195,171.603277 181.20725,165.744616 174.00017,165.744616 L160.950144,165.744616 L160.950144,148.297948 L195.750382,148.297948 L195.750382,191.478871 C195.750382,198.946595 201.788058,205 209.235239,205 L247.515144,205 C254.962834,205 261,198.946084 261,191.478871 L261,113.840615 C261.00051,106.372891 254.962834,100.318975 247.515653,100.318975 L247.515653,100.318975 Z M100.050365,185.311482 C100.045777,191.365399 95.1520179,196.271811 89.114342,196.276922 L19.6357005,196.276922 C13.5980246,196.272322 8.70477481,191.365399 8.69967715,185.311482 L8.69967715,183.191794 L100.050365,183.191794 L100.049856,185.311482 L100.050365,185.311482 Z M100.050365,174.468205 L8.70018691,174.468205 L8.70018691,78.5107688 L100.050365,78.5107688 L100.050365,174.468205 Z M100.050365,69.7871797 L8.70018691,69.7871797 L8.70018691,67.6674911 C8.70477481,61.6135748 13.5985344,56.7071629 19.6362102,56.7020515 L89.114342,56.7020515 C95.1520179,56.7066518 100.045268,61.6135748 100.050365,67.6674911 L100.050365,69.7871797 Z M174.00017,174.468205 C176.4027,174.468205 178.350008,176.421262 178.350008,178.829744 L178.350008,183.191283 L108.750042,183.191283 L108.750042,174.468205 L174.00017,174.468205 Z M108.750042,165.744616 L108.750042,148.297948 L152.249958,148.297948 L152.249958,165.744616 L108.750042,165.744616 Z M195.750382,139.574359 L156.600306,139.574359 L108.750042,139.574359 L108.750042,126.489231 L195.750382,126.489231 L195.750382,139.574359 Z M195.750382,113.840615 L195.750382,117.766153 L108.750042,117.766153 L108.750042,67.6674911 C108.737808,56.7986566 99.9535097,47.9907297 89.114342,47.9789735 L52.200102,47.9789735 L52.200102,21.8087173 C52.200102,14.5822508 58.0425372,8.72358913 65.2501274,8.72358913 L195.750382,8.72358913 C202.957463,8.72358913 208.800408,14.5817397 208.800408,21.8087173 L208.800408,100.362933 C201.540312,100.597545 195.770263,106.556901 195.750382,113.840615 Z M252.300323,191.478871 C252.300323,194.12861 250.157774,196.276922 247.515144,196.276922 L209.235239,196.276922 C206.592609,196.276922 204.450059,194.12861 204.450059,191.478871 L204.450059,187.553333 L252.300323,187.553333 L252.300323,191.478871 Z M252.300323,178.829744 L204.450059,178.829744 L204.450059,126.489231 L252.300323,126.489231 L252.300323,178.829744 Z M252.300323,117.766153 L204.450059,117.766153 L204.450059,113.840615 C204.450059,111.190876 206.592609,109.042564 209.235239,109.042564 L247.515144,109.042564 C250.157774,109.042564 252.300323,111.190876 252.300323,113.840615 L252.300323,117.766153 Z" id="Shape"></path>
            </g>
        </g>
    </g>
</svg>